<svg width="50" height="50" viewBox="0 0 50 50" fill="none" xmlns="http://www.w3.org/2000/svg">
<path d="M21.7918 12.4999L22.9168 11.2708V18.7499C22.9168 19.3025 23.1363 19.8324 23.527 20.2231C23.9177 20.6138 24.4476 20.8333 25.0002 20.8333C25.5527 20.8333 26.0826 20.6138 26.4733 20.2231C26.864 19.8324 27.0835 19.3025 27.0835 18.7499V11.2708L28.2085 12.4166C28.3976 12.6302 28.6286 12.8027 28.8871 12.9233C29.1456 13.044 29.4261 13.1103 29.7113 13.1181C29.9964 13.1259 30.2802 13.0751 30.5449 12.9688C30.8096 12.8624 31.0496 12.7029 31.2502 12.4999C31.4454 12.3063 31.6004 12.0759 31.7062 11.822C31.812 11.5681 31.8664 11.2958 31.8664 11.0208C31.8664 10.7458 31.812 10.4735 31.7062 10.2196C31.6004 9.96571 31.4454 9.73529 31.2502 9.54161L26.4793 4.77078C26.2812 4.58111 26.0476 4.43244 25.7918 4.33328C25.2846 4.12491 24.7157 4.12491 24.2085 4.33328C23.9528 4.43244 23.7191 4.58111 23.521 4.77078L18.7502 9.45828C18.3468 9.86163 18.1202 10.4087 18.1202 10.9791C18.1202 11.5495 18.3468 12.0966 18.7502 12.4999C19.1535 12.9033 19.7006 13.1299 20.271 13.1299C20.8414 13.1299 21.3885 12.9033 21.7918 12.4999ZM25.0002 24.9999C23.764 24.9999 22.5557 25.3665 21.5278 26.0533C20.5 26.74 19.699 27.7161 19.2259 28.8582C18.7529 30.0002 18.6291 31.2569 18.8703 32.4693C19.1114 33.6816 19.7067 34.7953 20.5807 35.6694C21.4548 36.5434 22.5685 37.1387 23.7808 37.3799C24.9932 37.621 26.2499 37.4972 27.3919 37.0242C28.534 36.5511 29.5101 35.7501 30.1968 34.7223C30.8836 33.6945 31.2502 32.4861 31.2502 31.2499C31.2502 29.5923 30.5917 28.0026 29.4196 26.8305C28.2475 25.6584 26.6578 24.9999 25.0002 24.9999ZM25.0002 33.3333C24.5881 33.3333 24.1853 33.2111 23.8427 32.9822C23.5001 32.7533 23.2331 32.4279 23.0754 32.0472C22.9177 31.6665 22.8765 31.2476 22.9569 30.8435C23.0372 30.4394 23.2357 30.0682 23.527 29.7768C23.8184 29.4855 24.1896 29.287 24.5937 29.2066C24.9979 29.1263 25.4167 29.1675 25.7974 29.3252C26.1781 29.4829 26.5035 29.7499 26.7324 30.0925C26.9613 30.4351 27.0835 30.8379 27.0835 31.2499C27.0835 31.8025 26.864 32.3324 26.4733 32.7231C26.0826 33.1138 25.5527 33.3333 25.0002 33.3333ZM10.4168 31.2499C10.4168 31.662 10.539 32.0648 10.7679 32.4074C10.9969 32.75 11.3222 33.017 11.7029 33.1747C12.0836 33.3324 12.5025 33.3736 12.9066 33.2933C13.3107 33.2129 13.6819 33.0144 13.9733 32.7231C14.2647 32.4317 14.4631 32.0605 14.5435 31.6564C14.6239 31.2523 14.5826 30.8334 14.4249 30.4527C14.2672 30.072 14.0002 29.7466 13.6576 29.5177C13.315 29.2888 12.9122 29.1666 12.5002 29.1666C11.9476 29.1666 11.4177 29.3861 11.027 29.7768C10.6363 30.1675 10.4168 30.6974 10.4168 31.2499ZM39.5835 31.2499C39.5835 30.8379 39.4613 30.4351 39.2324 30.0925C39.0035 29.7499 38.6781 29.4829 38.2974 29.3252C37.9167 29.1675 37.4978 29.1263 37.0937 29.2066C36.6896 29.287 36.3184 29.4855 36.027 29.7768C35.7357 30.0682 35.5372 30.4394 35.4569 30.8435C35.3765 31.2476 35.4177 31.6665 35.5754 32.0472C35.7331 32.4279 36.0001 32.7533 36.3427 32.9822C36.6853 33.2111 37.0881 33.3333 37.5002 33.3333C38.0527 33.3333 38.5826 33.1138 38.9733 32.7231C39.364 32.3324 39.5835 31.8025 39.5835 31.2499ZM41.6668 16.6666H33.3335C32.781 16.6666 32.2511 16.8861 31.8604 17.2768C31.4697 17.6675 31.2502 18.1974 31.2502 18.7499C31.2502 19.3025 31.4697 19.8324 31.8604 20.2231C32.2511 20.6138 32.781 20.8333 33.3335 20.8333H41.6668C42.2194 20.8333 42.7493 21.0528 43.14 21.4435C43.5307 21.8342 43.7502 22.3641 43.7502 22.9166V39.5833C43.7502 40.1358 43.5307 40.6657 43.14 41.0564C42.7493 41.4471 42.2194 41.6666 41.6668 41.6666H8.3335C7.78096 41.6666 7.25106 41.4471 6.86036 41.0564C6.46966 40.6657 6.25016 40.1358 6.25016 39.5833V22.9166C6.25016 22.3641 6.46966 21.8342 6.86036 21.4435C7.25106 21.0528 7.78096 20.8333 8.3335 20.8333H16.6668C17.2194 20.8333 17.7493 20.6138 18.14 20.2231C18.5307 19.8324 18.7502 19.3025 18.7502 18.7499C18.7502 18.1974 18.5307 17.6675 18.14 17.2768C17.7493 16.8861 17.2194 16.6666 16.6668 16.6666H8.3335C6.67589 16.6666 5.08618 17.3251 3.91408 18.4972C2.74198 19.6693 2.0835 21.259 2.0835 22.9166V39.5833C2.0835 41.2409 2.74198 42.8306 3.91408 44.0027C5.08618 45.1748 6.67589 45.8333 8.3335 45.8333H41.6668C43.3244 45.8333 44.9141 45.1748 46.0862 44.0027C47.2583 42.8306 47.9168 41.2409 47.9168 39.5833V22.9166C47.9168 21.259 47.2583 19.6693 46.0862 18.4972C44.9141 17.3251 43.3244 16.6666 41.6668 16.6666Z" fill="#DA555C"/>
</svg>
