<svg width="56" height="50" viewBox="0 0 56 50" fill="none" xmlns="http://www.w3.org/2000/svg">
<path d="M28.1572 25C26.796 25 25.4655 25.3665 24.3337 26.0533C23.202 26.74 22.3199 27.7161 21.799 28.8582C21.2781 30.0002 21.1418 31.2569 21.4074 32.4693C21.6729 33.6817 22.3284 34.7953 23.2909 35.6694C24.2533 36.5435 25.4796 37.1387 26.8146 37.3799C28.1495 37.621 29.5333 37.4973 30.7908 37.0242C32.0483 36.5512 33.1232 35.7501 33.8794 34.7223C34.6356 33.6945 35.0392 32.4861 35.0392 31.25C35.0392 29.5924 34.3141 28.0026 33.0235 26.8305C31.7329 25.6584 29.9824 25 28.1572 25ZM28.1572 33.3333C27.7035 33.3333 27.2599 33.2111 26.8827 32.9822C26.5054 32.7533 26.2114 32.4279 26.0378 32.0472C25.8642 31.6665 25.8187 31.2476 25.9072 30.8435C25.9958 30.4394 26.2142 30.0682 26.5351 29.7768C26.8559 29.4855 27.2646 29.287 27.7096 29.2067C28.1546 29.1263 28.6159 29.1675 29.0351 29.3252C29.4542 29.4829 29.8125 29.7499 30.0646 30.0925C30.3166 30.4351 30.4512 30.8379 30.4512 31.25C30.4512 31.8025 30.2095 32.3324 29.7793 32.7231C29.3491 33.1138 28.7656 33.3333 28.1572 33.3333ZM26.5284 20.2291C26.7466 20.4188 27.0039 20.5675 27.2855 20.6666C27.56 20.7768 27.857 20.8338 28.1572 20.8338C28.4574 20.8338 28.7543 20.7768 29.0289 20.6666C29.3105 20.5675 29.5678 20.4188 29.7859 20.2291L35.0392 15.5416C35.4833 15.1383 35.7329 14.5912 35.7329 14.0208C35.7329 13.4504 35.4833 12.9033 35.0392 12.5C34.5951 12.0966 33.9927 11.87 33.3646 11.87C32.7365 11.87 32.1341 12.0966 31.69 12.5L30.4512 13.7291V6.24996C30.4512 5.69742 30.2095 5.16752 29.7793 4.77682C29.3491 4.38612 28.7656 4.16663 28.1572 4.16663C27.5488 4.16663 26.9653 4.38612 26.5351 4.77682C26.1049 5.16752 25.8632 5.69742 25.8632 6.24996V13.7291L24.6244 12.5C24.1803 12.0966 23.5779 11.87 22.9498 11.87C22.3217 11.87 21.7193 12.0966 21.2752 12.5C20.831 12.9033 20.5815 13.4504 20.5815 14.0208C20.5815 14.5912 20.831 15.1383 21.2752 15.5416L26.5284 20.2291ZM44.2152 31.25C44.2152 30.8379 44.0807 30.4351 43.8286 30.0925C43.5766 29.7499 43.2183 29.4829 42.7991 29.3252C42.3799 29.1675 41.9187 29.1263 41.4737 29.2067C41.0287 29.287 40.6199 29.4855 40.2991 29.7768C39.9783 30.0682 39.7598 30.4394 39.6713 30.8435C39.5828 31.2476 39.6282 31.6665 39.8018 32.0472C39.9755 32.4279 40.2695 32.7533 40.6467 32.9822C41.024 33.2111 41.4675 33.3333 41.9212 33.3333C42.5296 33.3333 43.1131 33.1138 43.5433 32.7231C43.9735 32.3324 44.2152 31.8025 44.2152 31.25ZM46.5092 16.6666H39.6272C39.0188 16.6666 38.4353 16.8861 38.0051 17.2768C37.5749 17.6675 37.3332 18.1974 37.3332 18.75C37.3332 19.3025 37.5749 19.8324 38.0051 20.2231C38.4353 20.6138 39.0188 20.8333 39.6272 20.8333H46.5092C47.1176 20.8333 47.7011 21.0528 48.1313 21.4435C48.5616 21.8342 48.8032 22.3641 48.8032 22.9166V39.5833C48.8032 40.1358 48.5616 40.6657 48.1313 41.0564C47.7011 41.4471 47.1176 41.6666 46.5092 41.6666H9.80512C9.19671 41.6666 8.61322 41.4471 8.18301 41.0564C7.7528 40.6657 7.51111 40.1358 7.51111 39.5833V22.9166C7.51111 22.3641 7.7528 21.8342 8.18301 21.4435C8.61322 21.0528 9.19671 20.8333 9.80512 20.8333H16.6871C17.2955 20.8333 17.879 20.6138 18.3092 20.2231C18.7395 19.8324 18.9811 19.3025 18.9811 18.75C18.9811 18.1974 18.7395 17.6675 18.3092 17.2768C17.879 16.8861 17.2955 16.6666 16.6871 16.6666H9.80512C7.97989 16.6666 6.22942 17.3251 4.93879 18.4972C3.64816 19.6693 2.9231 21.259 2.9231 22.9166V39.5833C2.9231 41.2409 3.64816 42.8306 4.93879 44.0027C6.22942 45.1748 7.97989 45.8333 9.80512 45.8333H46.5092C48.3345 45.8333 50.0849 45.1748 51.3756 44.0027C52.6662 42.8306 53.3913 41.2409 53.3913 39.5833V22.9166C53.3913 21.259 52.6662 19.6693 51.3756 18.4972C50.0849 17.3251 48.3345 16.6666 46.5092 16.6666ZM12.0991 31.25C12.0991 31.662 12.2337 32.0648 12.4857 32.4074C12.7378 32.75 13.0961 33.017 13.5153 33.1747C13.9344 33.3324 14.3957 33.3736 14.8407 33.2933C15.2857 33.2129 15.6944 33.0145 16.0152 32.7231C16.3361 32.4317 16.5545 32.0605 16.6431 31.6564C16.7316 31.2523 16.6861 30.8334 16.5125 30.4527C16.3389 30.072 16.0449 29.7466 15.6676 29.5177C15.2904 29.2888 14.8468 29.1666 14.3931 29.1666C13.7847 29.1666 13.2012 29.3861 12.771 29.7768C12.3408 30.1675 12.0991 30.6974 12.0991 31.25Z" fill="#759993"/>
</svg>
