<svg width="50" height="50" viewBox="0 0 50 50" fill="none" xmlns="http://www.w3.org/2000/svg">
<path d="M21.0019 8.51876C22.1061 9.28126 23.1623 9.78335 24.0311 9.89376C23.555 10.8385 23.2248 11.85 23.0519 12.8938C21.6519 12.5833 20.3207 11.8438 19.2269 11.0896C18.703 10.7265 18.1962 10.3393 17.7082 9.92918V14.5833C17.7078 14.8948 17.6145 15.199 17.44 15.457C17.2655 15.715 17.0179 15.915 16.729 16.0313L16.7165 16.0375C16.5994 16.0847 16.4841 16.1361 16.3707 16.1917C16.1269 16.3063 15.7728 16.4833 15.3582 16.7208C14.3392 17.2935 13.3993 17.9967 12.5623 18.8125C11.6186 19.7563 11.0353 21.0271 10.7082 22.0125C10.2853 23.275 9.21025 24.4396 7.68109 24.6958C7.57253 24.714 7.47388 24.77 7.40259 24.8539C7.33131 24.9377 7.29196 25.0441 7.2915 25.1542V28.8083C7.2915 29.1521 7.5415 29.4458 7.88109 29.5021C9.18109 29.7188 10.204 30.5688 10.7811 31.5979C11.548 32.9712 12.4976 34.2341 13.604 35.3521C14.5551 36.2795 15.6763 37.0145 16.9061 37.5167C17.4291 37.7344 17.9683 37.9113 18.5186 38.0458L18.529 38.05C18.8846 38.1196 19.2049 38.3106 19.4352 38.5903C19.6655 38.87 19.7915 39.221 19.7915 39.5833V42.1875C19.7915 42.475 20.0248 42.7083 20.3123 42.7083H22.9165C22.9165 41.8795 23.2457 41.0847 23.8318 40.4986C24.4178 39.9126 25.2127 39.5833 26.0415 39.5833H30.2082C31.037 39.5833 31.8318 39.9126 32.4179 40.4986C33.0039 41.0847 33.3332 41.8795 33.3332 42.7083H35.9373C36.0755 42.7083 36.2079 42.6535 36.3056 42.5558C36.4033 42.4581 36.4582 42.3256 36.4582 42.1875V37.5C36.4582 36.9104 36.7915 36.3708 37.3165 36.1042L37.3436 36.0896C37.5979 35.9448 37.844 35.7862 38.0811 35.6146C38.5873 35.2479 39.2728 34.6792 39.9603 33.8771C41.3186 32.2938 42.7082 29.7792 42.7082 26.0417C42.7082 23.9438 42.3165 22.25 41.6478 20.8583C42.3916 19.8708 42.9545 18.7591 43.3103 17.575C43.5186 17.8583 43.7144 18.1521 43.8978 18.4563C45.1561 20.5375 45.8332 23.0479 45.8332 26.0396C45.8332 30.6375 44.0978 33.8521 42.3332 35.9125C41.5289 36.8508 40.6042 37.6788 39.5832 38.375V42.1854C39.5834 42.6644 39.4893 43.1387 39.3062 43.5813C39.1231 44.0238 38.8546 44.426 38.5161 44.7648C38.1775 45.1035 37.7755 45.3723 37.333 45.5556C36.8905 45.739 36.4163 45.8333 35.9373 45.8333H33.3332C32.5044 45.8333 31.7095 45.5041 31.1235 44.9181C30.5374 44.332 30.2082 43.5371 30.2082 42.7083H26.0415C26.0415 43.5371 25.7123 44.332 25.1262 44.9181C24.5402 45.5041 23.7453 45.8333 22.9165 45.8333H20.3123C19.3454 45.8333 18.4181 45.4492 17.7343 44.7655C17.0506 44.0818 16.6665 43.1544 16.6665 42.1875V40.7646C16.3401 40.6545 16.0176 40.5329 15.6998 40.4C14.0956 39.7405 12.634 38.777 11.3957 37.5625C10.0852 36.2409 8.9603 34.7474 8.05192 33.1229C7.98439 32.9883 7.88792 32.8703 7.76942 32.7774C7.65092 32.6845 7.51332 32.6189 7.3665 32.5854C6.47235 32.4365 5.66003 31.9752 5.07407 31.2835C4.48811 30.5919 4.16651 29.7148 4.1665 28.8083V25.1563C4.1665 23.4 5.43734 21.9021 7.1665 21.6146C7.34775 21.5833 7.6165 21.4021 7.74359 21.0229C8.14359 19.8208 8.92067 18.0354 10.354 16.6021C11.387 15.5896 12.5483 14.7169 13.8082 14.0063C14.0915 13.8438 14.354 13.7042 14.5832 13.5896V7.64585C14.5832 5.69168 16.9373 4.8896 18.2082 6.15418C18.8957 6.8396 19.8957 7.7521 21.0019 8.51668V8.51876ZM27.229 18.4333C26.2082 18.0104 25.3457 17.2063 25.1415 16.1208C24.7702 14.0986 25.1592 12.0104 26.2338 10.2575C27.3084 8.50456 28.9929 7.21055 30.9635 6.62402C32.9342 6.0375 35.0521 6.19984 36.9104 7.07985C38.7686 7.95985 40.2362 9.49547 41.0311 11.3917C41.7637 13.1587 41.8663 15.124 41.3216 16.9577C40.7768 18.7915 39.618 20.382 38.0394 21.4625C37.1269 22.0854 35.9498 22.0438 34.929 21.6208L27.229 18.4333ZM36.3832 18.8083C37.4122 18.0582 38.1309 16.9573 38.4038 15.7135C38.6768 14.4697 38.4849 13.169 37.8645 12.0569C37.2442 10.9449 36.2382 10.0984 35.0364 9.67719C33.8347 9.25603 32.5204 9.28935 31.3415 9.77085C30.2581 10.2196 29.3576 11.0205 28.7856 12.0442C28.2137 13.068 28.0036 14.2547 28.1894 15.4125L28.2332 15.4458C28.2937 15.4853 28.3579 15.5188 28.4248 15.5458L36.1248 18.7333C36.2077 18.7679 36.2944 18.7924 36.3832 18.8063V18.8083ZM18.7498 20.8333C18.7498 21.3859 18.5303 21.9158 18.1396 22.3065C17.7489 22.6972 17.219 22.9167 16.6665 22.9167C16.114 22.9167 15.5841 22.6972 15.1934 22.3065C14.8027 21.9158 14.5832 21.3859 14.5832 20.8333C14.5832 20.2808 14.8027 19.7509 15.1934 19.3602C15.5841 18.9695 16.114 18.75 16.6665 18.75C17.219 18.75 17.7489 18.9695 18.1396 19.3602C18.5303 19.7509 18.7498 20.2808 18.7498 20.8333Z" fill="#DE9244"/>
</svg>
